# AST/ASF file generated using VICON BodyLanguage
# -----------------------------------------------
:version 1.10
:name VICON
:units
  mass 1.0
  length 0.45
  angle deg
:documentation
   .ast/.asf automatically generated from VICON data using
   VICON BodyBuilder and BodyLanguage model FoxedUp or BRILLIANT.MOD
:root
   order TX TY TZ RX RY RZ
   axis XYZ
   position 0 0 0  
   orientation 0 0 0 
:bonedata
  begin
     id 1 
     name lhipjoint
     direction 0.645897 -0.709066 0.282916 
     length 2.50918 
     axis 0 0 0  XYZ
  end
  begin
     id 2 
     name lfemur
     direction 0.34202 -0.939693 0  
     length 6.85725  
     axis 0 0 20  XYZ
    dof rx ry rz
    limits (-160.0 20.0)
           (-70.0 70.0)
           (-60.0 70.0)
  end
  begin
     id 3 
     name ltibia
     direction 0.34202 -0.939693 0   
     length 8.01778   
     axis 0 0 20   XYZ
    dof rx
    limits (-10.0 170.0)
  end
  begin
     id 4 
     name lfoot
     direction 0.0796011 -0.218702 0.972539   
     length 2.13962   
     axis -90 7.62852e-016 20   XYZ
    dof rx rz
    limits (-45.0 90.0)
           (-70.0 20.0)
  end
  begin
     id 5 
     name ltoes
     direction 1.53548e-011 -4.21881e-011 1   
     length 1.07476   
     axis -90 7.62852e-016 20   XYZ
    dof rx
    limits (-90.0 20.0)
  end
  begin
     id 6 
     name rhipjoint
     direction -0.63101 -0.720537 0.287493   
     length 2.46923  
     axis 0 0 0  XYZ 
  end
  begin
     id 7 
     name rfemur
     direction -0.34202 -0.939693 0   
     length 6.81957   
     axis 0 0 -20   XYZ
    dof rx ry rz
    limits (-160.0 20.0)
           (-70.0 70.0)
           (-70.0 60.0)
  end
  begin
     id 8 
     name rtibia
     direction -0.34202 -0.939693 0   
     length 8.15152   
     axis 0 0 -20   XYZ
    dof rx
    limits (-10.0 170.0)
 end
 begin
     id 9 
     name rfoot
     direction -0.105819 -0.290734 0.950934   
     length 2.14588  
     axis -90 -7.62852e-016 -20   XYZ
    dof rx rz
    limits (-45.0 90.0)
           (-20.0 70.0)
  end
  begin
     id 10 
     name rtoes
     direction -1.53512e-011 -4.22005e-011 1   
     length 1.0703   
     axis -90 -7.62852e-016 -20   XYZ
    dof rx
    limits (-90.0 20.0)
  end
  begin
     id 11 
     name lowerback
     direction 0.0114933 0.999236 0.0373542   
     length 1.91711   
     axis 0 0 0   XYZ
    dof rx ry rz
    limits (-20.0 45.0)
           (-30.0 30.0)
           (-30.0 30.0)
  end
  begin
     id 12 
     name upperback
     direction 0.00911529 0.998099 0.0609554   
     length 1.90888   
     axis 0 0 0   XYZ
    dof rx ry rz
    limits (-20.0 45.0)
           (-30.0 30.0)
           (-30.0 30.0)
  end
  begin
     id 13 
     name thorax
     direction 0.00357322 0.99911 0.0420379   
     length 1.90942   
     axis 0 0 0   XYZ
    dof rx ry rz
    limits (-20.0 45.0)
           (-30.0 30.0)
           (-30.0 30.0)
  end
  begin
     id 14 
     name lowerneck
     direction -0.0589311 0.997882 0.0275448   
     length 1.83956   
     axis 0 0 0   XYZ
    dof rx ry rz
    limits (-20.0 45.0)
           (-30.0 30.0)
           (-30.0 30.0)
  end
  begin
     id 15 
     name upperneck
     direction 0.0362633 0.960055 -0.277453   
     length 1.82031   
     axis 0 0 0   XYZ
    dof rx ry rz
    limits (-20.0 45.0)
           (-30.0 30.0)
           (-30.0 30.0)
  end
  begin
     id 16
     name head
     direction 0.0166719 0.995328 -0.0951042  
     length 1.86084  
     axis 0 0 0   XYZ
    dof rx ry rz
    limits (-20.0 45.0)
           (-30.0 30.0)
           (-30.0 30.0)
  end
  begin
     id 17 
     name lclavicle
     direction 0.90319 0.426238 0.0506919  
     length 3.17828  
     axis 0 0 0   XYZ
    dof ry rz
    limits (-20.0 10.0)
           (0.0 20.0)
  end
  begin
     id 18 
     name lhumerus
     direction 1 -4.48953e-011 6.78797e-028   
     length 5.43592   
     axis 180 -30 -90   XYZ
    dof rx ry rz
    limits (-60.0 90.0)
           (-90.0 90.0)
           (-90.0 90.0)
  end
  begin
     id 19
     name lradius
     direction 1 -4.48969e-011 7.02702e-027   
     length 3.2546   
     axis 180 -30 -90   XYZ
    dof rx
    limits (-10.0 170.0)
  end
  begin
     id 20
     name lwrist
     direction 1 -4.48975e-011 1.29807e-026   
     length 1.6273   
     axis -8.50346e-015 90 90   XYZ
    dof ry
    limits (-180.0 0.0)
 end
  begin
     id 21 
     name lhand
     direction 1 -4.48917e-011 2.59615e-026   
     length 0.498244   
     axis -1.65656e-014 90 90   XYZ
    dof rx rz
    limits (-90.0 90.0)
           (-45.0 45.0)
  end
  begin
     id 22 
     name lfingers
     direction 1 -4.48885e-011 5.1923e-026   
     length 0.401697   
     axis -3.31313e-014 90 90   XYZ
    dof rx
    limits (0.0 90.0)
  end
  begin
     id 23
     name lthumb
     direction 0.707107 -6.34946e-011 0.707107   
     length 0.576759   
     axis -90 45 2.85299e-015   XYZ
    dof rx rz
    limits (-45.0 45.0)
           (-45.0 45.0)
  end
  begin
     id 24 
     name rclavicle
     direction -0.908603 0.391432 0.145676   
     length 3.15477  
     axis 0 0 0   XYZ 
    dof ry rz
    limits (-10.0 20.0)
           (-20.0 0.0)
  end
  begin
     id 25 
     name rhumerus
     direction -1 -4.4898e-011 1.02852e-027  
     length 5.3383   
     axis 180 30 90   XYZ
    dof rx ry rz
    limits (-90.0 60.0)
           (-90.0 90.0)
           (-90.0 90.0)
  end
  begin
     id 26 
     name rradius
     direction -1 -4.48968e-011 7.05567e-027   
     length 3.23148   
     axis 180 30 90   XYZ
    dof rx
    limits (-10.0 170.0)
  end
  begin
     id 27 
     name rwrist
     direction -1 -4.48927e-011 1.29807e-026   
     length 1.61574   
     axis -8.50346e-015 -90 -90   XYZ
    dof ry
    limits (-180.0 0.0)
  end
  begin
     id 28
     name rhand
     direction -1 -4.48905e-011 2.59615e-026   
     length 0.463641   
     axis -1.65656e-014 -90 -90   XYZ
    dof rx rz
    limits (-90.0 90.0)
           (-45.0 45.0)
  end
  begin
     id 29
     name rfingers
     direction -1 -4.49167e-011 5.1923e-026   
     length 0.373799   
     axis -3.31313e-014 -90 -90   XYZ
    dof rx
    limits (0.0 90.0)
  end
  begin
     id 30
     name rthumb
     direction -0.707107 -6.34954e-011 0.707107   
     length 0.536703   
     axis -90 -45 -2.85299e-015   XYZ
    dof rx rz
    limits (-45.0 45.0)
           (-45.0 45.0)
  end
:hierarchy
  begin
    root lhipjoint rhipjoint lowerback
    lhipjoint lfemur
    lfemur ltibia
    ltibia lfoot
    lfoot ltoes
    rhipjoint rfemur
    rfemur rtibia
    rtibia rfoot
    rfoot rtoes
    lowerback upperback
    upperback thorax
    thorax lowerneck lclavicle rclavicle
    lowerneck upperneck
    upperneck head
    lclavicle lhumerus
    lhumerus lradius
    lradius lwrist
    lwrist lhand lthumb
    lhand lfingers
    rclavicle rhumerus
    rhumerus rradius
    rradius rwrist
    rwrist rhand rthumb
    rhand rfingers
  end

#!OML:ASF F:\VICON\USERDATA\INSTALL\rory3\rory3.ASF
:FULLY-SPECIFIED
:DEGREES
150
root 4.28168 17.5787 3.30535 18.0214 -8.38924 -4.76137
lowerback -5.72273 -0.894529 6.46807
upperback -10.077 -1.17271 2.64102
thorax -7.49268 -0.970404 -0.805978
lowerneck -10.6858 8.2343 5.38494
upperneck 31.4659 9.74782 2.87834
head 12.2833 5.34087 1.49377
rclavicle -2.23633e-014 1.07344e-014
rhumerus -6.34196 -21.3798 13.6887
rradius 116.68
rwrist -54.9665
rhand -3.98971 -45.378
rfingers 7.12502
rthumb 21.7638 -74.1744
lclavicle -2.23633e-014 1.07344e-014
lhumerus 31.6428 35.4841 -7.97219
lradius 31.1102
lwrist 34.3221
lhand -27.022 -19.7778
lfingers 7.12502
lthumb -0.441313 10.2015
rfemur -8.61465 8.08071 1.04858
rtibia 17.0786
rfoot 19.1696 -11.9221
rtoes -32.7046
lfemur -25.4634 -1.54467 -22.2616
ltibia 24.2923
lfoot -14.2111 9.56962
ltoes 10.5013
151
root 4.28581 17.5778 3.27932 18.0109 -8.44476 -4.79265
lowerback -5.5339 -0.858193 6.39344
upperback -9.99331 -1.11174 2.61356
thorax -7.50148 -0.933908 -0.792837
lowerneck -10.6972 8.11979 5.28974
upperneck 31.4991 9.61622 2.832
head 12.2932 5.26435 1.47473
rclavicle 2.22639e-014 -3.97569e-015
rhumerus -6.45343 -21.3103 13.6626
rradius 116.661
rwrist -55.1463
rhand -4.55767 -45.5647
rfingers 7.12502
rthumb 21.2184 -74.4234
lclavicle 2.22639e-014 -3.97569e-015
lhumerus 31.7161 35.573 -7.844
lradius 31.032
lwrist 33.9684
lhand -26.6816 -20.1117
lfingers 7.12502
lthumb -0.112596 9.86801
rfemur -8.9423 8.19173 1.06016
rtibia 17.491
rfoot 18.8555 -12.4962
rtoes -31.5336
lfemur -25.6394 -1.45351 -22.2379
ltibia 24.4058
lfoot -14.1445 9.47575
ltoes 10.8202
152
root 4.2898 17.5753 3.26028 17.9647 -8.51205 -4.76818
lowerback -5.47037 -0.828853 6.25336
upperback -9.90798 -1.06978 2.61189
thorax -7.43472 -0.899542 -0.719252
lowerneck -10.4838 8.0509 5.07093
upperneck 31.449 9.56998 2.86124
head 12.2104 5.22388 1.49938
rclavicle 3.63279e-014 7.95139e-015
rhumerus -6.34076 -21.2633 13.5142
rradius 116.506
rwrist -55.2241
rhand -3.76184 -45.5611
rfingers 7.12502
rthumb 21.9826 -74.3319
lclavicle 3.63279e-014 7.95139e-015
lhumerus 31.7568 35.5632 -7.67608
lradius 30.9815
lwrist 33.8596
lhand -26.3018 -19.9851
lfingers 7.12502
lthumb 0.254233 9.99453
rfemur -9.17333 8.30313 1.01704
rtibia 17.8197
rfoot 18.2866 -13.0245
rtoes -30.8098
lfemur -25.7854 -1.46565 -22.2639
ltibia 24.5785
lfoot -14.1336 9.50003
ltoes 11.1121
153
root 4.29938 17.5731 3.24904 17.9155 -8.42536 -4.88158
lowerback -5.48428 -0.843925 6.35516
upperback -9.84763 -1.09217 2.65914
thorax -7.36464 -0.91319 -0.727601
lowerneck -9.98442 7.9615 5.04004
upperneck 31.2694 9.51177 2.7347
head 12.0394 5.18211 1.41541
rclavicle -2.74323e-014 4.77083e-014
rhumerus -6.15958 -21.0214 13.3042
rradius 116.393
rwrist -55.0945
rhand -3.03728 -45.1479
rfingers 7.12502
rthumb 22.6782 -73.8354
lclavicle -2.74323e-014 4.77083e-014
lhumerus 31.5801 35.3452 -7.73004
lradius 31.0316
lwrist 34.1645
lhand -25.9043 -19.5942
lfingers 7.12502
lthumb 0.638138 10.3846
rfemur -9.31924 8.20029 1.16442
rtibia 18.135
rfoot 18.063 -13.5037
rtoes -29.226
lfemur -25.8718 -1.49015 -22.1541
ltibia 24.7704
lfoot -14.2102 9.48347
ltoes 11.0619
154
root 4.31077 17.5737 3.2398 17.9326 -8.33078 -5.1387
lowerback -5.55243 -0.821883 6.63632
upperback -9.78191 -1.07233 2.69542
thorax -7.26276 -0.918208 -0.848441
lowerneck -9.67373 7.8124 5.23727
upperneck 31.2383 9.34998 2.4623
head 11.9905 5.09926 1.24501
rclavicle -5.41191e-014 2.22639e-014
rhumerus -6.0554 -20.8045 13.0653
rradius 116.207
rwrist -54.8149
rhand -3.35947 -45.086
rfingers 7.12502
rthumb 22.3689 -73.8109
lclavicle -5.41191e-014 2.22639e-014
lhumerus 31.1341 34.85 -8.24864
lradius 31.2431
lwrist 34.8706
lhand -25.2066 -18.8355
lfingers 7.12502
lthumb 1.31199 11.1402
rfemur -9.54562 8.03936 1.45071
rtibia 18.4873
rfoot 17.7013 -13.7961
rtoes -27.9783
lfemur -25.981 -1.41906 -21.92
ltibia 24.9564
lfoot -14.3459 9.40766
ltoes 11.0255
